<?xml version="1.0" encoding="utf-8"?>
<svg xmlns="http://www.w3.org/2000/svg" viewBox="0 0 500 500">
  <g id="Layer_1" transform="matrix(4.683471, 0, 0, 5.068383, -2285.483887, -1026.940186)" style="">
    <g transform="matrix(2.259209, 0, 0, 2.535812, 489.623077, 62.818226)" style="">
      <g>
        <path class="cls-1" d="M28.95,65.59h-3.24c-.38,0-.69.3-.69.67v4.1c0,.37.31.68.69.68h3.24c.38,0,.69-.31.69-.68v-4.1c0-.37-.31-.67-.69-.67ZM28.09,67.84h-2.57c-.1,0-.18-.08-.18-.17v-.6c0-.1.08-.17.18-.17h2.57v.95ZM29.31,67.67c0,.1-.08.17-.18.17h-.99v-.95h.99c.1,0,.18.08.18.17v.6ZM28.95,65.59h-3.24c-.38,0-.69.3-.69.67v4.1c0,.37.31.68.69.68h3.24c.38,0,.69-.31.69-.68v-4.1c0-.37-.31-.67-.69-.67ZM28.09,67.84h-2.57c-.1,0-.18-.08-.18-.17v-.6c0-.1.08-.17.18-.17h2.57v.95ZM29.31,67.67c0,.1-.08.17-.18.17h-.99v-.95h.99c.1,0,.18.08.18.17v.6ZM29.53,59.26h-14c-.92,0-1.67.74-1.65,1.65.11,9.09.22,18.19.33,27.28,2.37-.51,5.2-1.31,8.28-2.61,3.24-1.37,5.9-2.94,7.99-4.38.45-.31.71-.81.71-1.34v-18.96c0-.91-.74-1.63-1.65-1.63ZM23.55,80.95c0,.4-.32.72-.73.72h-5.92c-.4,0-.73-.32-.73-.72v-14.92c0-.4.33-.72.73-.72h5.92c.4,0,.73.32.73.72v14.92ZM26.64,74.72c0,.17-.14.31-.31.31h-1.09c-.18,0-.32-.14-.32-.31v-1.1c0-.17.14-.31.32-.31h1.09c.17,0,.31.13.31.31v1.1ZM29.68,72.64c0,.16-.12.28-.28.28h-4.17c-.15,0-.28-.12-.28-.28v-.74c0-.15.12-.28.28-.28h4.17c.15,0,.28.13.28.28v.74ZM29.78,70.36c0,.45-.37.82-.83.82h-3.24c-.46,0-.83-.37-.83-.82v-4.1c0-.45.37-.81.83-.81h3.24c.45,0,.83.36.83.81v4.1ZM30.08,62.96c0,.3-.25.54-.55.54h-14.01c-.3,0-.54-.24-.54-.54v-1.77c0-.3.24-.54.54-.54h14.01c.3,0,.55.24.55.54v1.77ZM28.95,65.59h-3.24c-.38,0-.69.3-.69.67v4.1c0,.37.31.68.69.68h3.24c.38,0,.69-.31.69-.68v-4.1c0-.37-.31-.67-.69-.67ZM28.09,67.84h-2.57c-.1,0-.18-.08-.18-.17v-.6c0-.1.08-.17.18-.17h2.57v.95ZM29.31,67.67c0,.1-.08.17-.18.17h-.99v-.95h.99c.1,0,.18.08.18.17v.6ZM26.27,73.37h-.96c-.18,0-.32.13-.32.31v.97c0,.17.14.31.32.31h.96c.17,0,.31-.14.31-.31v-.97c0-.17-.14-.31-.31-.31ZM25.37,74.7s-.03.07-.07.07h-.07s-.07-.03-.07-.07v-.07s.03-.07.07-.07h.07s.07.03.07.07v.07ZM25.89,74.7s-.03.07-.07.07h-.07s-.07-.03-.07-.07v-.07s.03-.07.07-.07h.07s.07.03.07.07v.07ZM26.17,74.7s-.03.07-.07.07h-.06s-.07-.03-.07-.07v-.07s.03-.07.07-.07h.06s.07.03.07.07v.07ZM26.17,74.42s-.03.07-.07.07h-.07s-.07-.03-.07-.07v-.32s.03-.07.07-.07h.07s.07.03.07.07v.32ZM26.39,74.69s-.03.07-.07.07c-.03,0-.07-.03-.07-.07v-.58s.03-.07.07-.07c.04,0,.07.03.07.07v.58ZM26.42,73.81c0,.08-.06.14-.14.14h-.99c-.08,0-.14-.06-.14-.14v-.17c0-.08.06-.14.14-.14h.99c.08,0,.14.06.14.14v.17ZM28.95,65.59h-3.24c-.38,0-.69.3-.69.67v4.1c0,.37.31.68.69.68h3.24c.38,0,.69-.31.69-.68v-4.1c0-.37-.31-.67-.69-.67ZM28.09,67.84h-2.57c-.1,0-.18-.08-.18-.17v-.6c0-.1.08-.17.18-.17h2.57v.95ZM29.31,67.67c0,.1-.08.17-.18.17h-.99v-.95h.99c.1,0,.18.08.18.17v.6ZM28.95,65.59h-3.24c-.38,0-.69.3-.69.67v4.1c0,.37.31.68.69.68h3.24c.38,0,.69-.31.69-.68v-4.1c0-.37-.31-.67-.69-.67ZM28.09,67.84h-2.57c-.1,0-.18-.08-.18-.17v-.6c0-.1.08-.17.18-.17h2.57v.95ZM29.31,67.67c0,.1-.08.17-.18.17h-.99v-.95h.99c.1,0,.18.08.18.17v.6Z" fill="#2563eb"/>
        <path class="cls-1" d="M23.19,66.65v13.7c0,.35-.29.63-.66.63h-5.33c-.36,0-.66-.28-.66-.63v-13.7c0-.35.29-.63.66-.63h5.33c.36,0,.66.28.66.63Z" fill="#2563eb"/>
      </g>
      <g>
        <path class="cls-1" d="M12.9,64.09l.07,24.57c-1.12.49-2.57,1.01-4.31,1.32-1.8.32-3.37.33-4.59.23-1.99-1.88-2.78-3.74-3.13-5.05-1.73-6.42,2.95-15.13,11.97-21.07Z" fill="#2563eb"/>
        <path class="cls-1" d="M33.1,56.96c.91.8,5.82,5.29,5.71,11.91-.01.63-.09,2.66-1.17,5.27-1.11,2.69-3.61,6.81-12.38,11.22-4.32,2.17-11.23,4.95-20.43,5.82,1.74.67,4.2,1.58,7.23,1.8,4.69.33,11.55-.46,20.2-4.96,17.3-9,15.31-24.46.84-31.06Z" fill="#60a5fa"/>
      </g>
      <rect class="cls-1" x="15.36" y="60.93" width="14.42" height="2.25" rx=".67" ry=".67" fill="#2563eb"/>
    </g>
  </g>
</svg>

