<svg xmlns="http://www.w3.org/2000/svg" id="Layer_1" data-name="Layer 1" viewBox="0 0 250 150" class="fusion-extension-loaded">
  <defs>
    <style>
      .cls-1 {
        fill: #0f172b;
      }

      .cls-2 {
        fill: #155dfc;
      }
    </style>
  </defs>
  <path class="cls-2" d="M45.31,83.5v-17h8.19c1.59,0,2.96.26,4.12.78s2.05,1.26,2.68,2.22c.63.96.95,2.1.95,3.41s-.32,2.45-.95,3.4c-.63.96-1.53,1.7-2.68,2.22-1.16.53-2.53.79-4.12.79h-5l2.55-2.45v6.63h-5.73ZM51.05,77.5l-2.55-2.6h4.64c.79,0,1.38-.18,1.76-.53.38-.36.57-.84.57-1.46s-.19-1.1-.57-1.46c-.38-.36-.97-.53-1.76-.53h-4.64l2.55-2.6v9.18Z"/>
  <path class="cls-2" d="M63.12,83.5v-17h5.73v17h-5.73Z"/>
  <path class="cls-2" d="M71.02,83.5v-3.52l9.47-11.03.7,1.99h-9.94v-4.45h14.99v3.52l-9.47,11.03-.7-1.99h10.57v4.45h-15.62Z"/>
  <path class="cls-2" d="M87.7,83.5v-3.52l9.47-11.03.7,1.99h-9.94v-4.45h14.99v3.52l-9.47,11.03-.7-1.99h10.57v4.45h-15.62Z"/>
  <path class="cls-2" d="M103.15,83.5l7.43-17h5.64l7.43,17h-5.93l-5.49-14.28h2.23l-5.49,14.28h-5.83ZM107.58,80.54l1.46-4.13h7.82l1.46,4.13h-10.74Z"/>
  <path class="cls-1" d="M128.26,83.5l7.42-16.97h5.63l7.42,16.97h-5.92l-5.48-14.26h2.23l-5.48,14.26h-5.82ZM132.68,80.54l1.45-4.12h7.81l1.45,4.12h-10.72Z"/>
  <path class="cls-1" d="M149.65,83.5v-16.97h4.7l8.63,10.33h-2.18v-10.33h5.58v16.97h-4.7l-8.63-10.33h2.18v10.33h-5.58Z"/>
  <path class="cls-1" d="M173.39,83.5v-7.44l1.31,3.42-7.71-12.95h6.04l5.21,8.85h-3.52l5.26-8.85h5.53l-7.66,12.95,1.26-3.42v7.44h-5.72Z"/>
  <path class="cls-1" d="M191.78,83.5v-12.54h-4.97v-4.44h15.66v4.44h-4.97v12.54h-5.72Z"/>
  <path class="cls-1" d="M203.95,83.5v-16.97h5.72v16.97h-5.72Z"/>
  <path class="cls-1" d="M212.43,83.5v-16.97h4.7l6.79,11.08h-2.47l6.6-11.08h4.7l.05,16.97h-5.21l-.05-9.12h.82l-4.51,7.59h-2.52l-4.7-7.59h1.02v9.12h-5.21Z"/>
  <path class="cls-1" d="M235.57,83.5v-16.97h13.8v4.32h-8.17v8.34h8.49v4.32h-14.11ZM240.81,76.96v-4.12h7.57v4.12h-7.57Z"/>
  <g>
    <g>
      <path class="cls-2" d="M11.73,64.76l.06,23.05c-1.04.46-2.38.95-4,1.24-1.66.3-3.12.31-4.25.22-1.84-1.77-2.57-3.51-2.9-4.74-1.6-6.03,2.73-14.19,11.09-19.76Z"/>
      <path class="cls-1" d="M30.44,58.08c.84.75,5.39,4.96,5.28,11.17-.01.59-.08,2.49-1.08,4.94-1.03,2.52-3.34,6.39-11.46,10.53-4,2.04-10.4,4.65-18.92,5.46,1.61.63,3.89,1.48,6.69,1.68,4.35.31,10.7-.43,18.71-4.65,16.02-8.44,14.18-22.95.78-29.13Z"/>
    </g>
    <g>
      <g>
        <path class="cls-1" d="M22.06,72.51c-.01-.59-.73-.87-1.14-.45l-4.47,4.6c-.36.36-.19.97.3,1.11l4.6,1.26c.43.12.86-.21.85-.66l-.13-5.87ZM20.98,78.38l-3.4-.97c-.36-.1-.48-.57-.22-.85l3.3-3.53c.31-.33.83-.11.84.35l.1,4.49c0,.34-.31.6-.62.51Z"/>
        <circle class="cls-1" cx="20.68" cy="74.36" r=".6"/>
        <circle class="cls-1" cx="18.43" cy="76.7" r=".6"/>
        <circle class="cls-1" cx="20.58" cy="76.79" r=".6"/>
        <circle class="cls-1" cx="17.27" cy="72.6" r=".34"/>
      </g>
      <g>
        <rect class="cls-1" x="25.24" y="75.37" width="2.05" height="1.08" rx=".27" ry=".27"/>
        <rect class="cls-1" x="25.24" y="75.37" width="2.05" height="1.08" rx=".27" ry=".27"/>
      </g>
      <path class="cls-1" d="M27.84,59.64h-12.96c-.86,0-1.55.7-1.54,1.55.11,8.53.21,17.05.31,25.59,2.2-.47,4.82-1.23,7.67-2.45,3-1.28,5.46-2.76,7.4-4.11.41-.29.66-.76.66-1.26v-17.78c0-.85-.69-1.53-1.53-1.53ZM23.29,78.3c0,.81-.45,1.44-.97,1.36l-6.95-.95c-.49-.07-.85-.72-.81-1.47l.55-11.15c.03-.72.42-1.27.89-1.27h6.4c.5,0,.89.61.89,1.37v12.1ZM25.27,78.33c0,.08-.06.14-.14.14h-.22c-.08,0-.14-.06-.14-.14v-.21c0-.08.06-.14.14-.14h.22c.08,0,.14.06.14.14v.21ZM25.27,77.73c0,.08-.06.14-.14.14h-.22c-.08,0-.14-.06-.14-.14v-.21c0-.08.06-.14.14-.14h.22c.08,0,.14.06.14.14v.21ZM25.86,78.33c0,.08-.06.14-.14.14h-.22c-.08,0-.14-.06-.14-.14v-.21c0-.08.06-.14.14-.14h.22c.08,0,.14.06.14.14v.21ZM25.86,77.73c0,.08-.06.14-.14.14h-.22c-.08,0-.14-.06-.14-.14v-.21c0-.08.06-.14.14-.14h.22c.08,0,.14.06.14.14v.21ZM27.95,76.67c0,.21-.17.38-.38.38h-2.51c-.21,0-.37-.17-.37-.38v-1.52c0-.21.17-.38.37-.38h2.51c.21,0,.38.17.38.38v1.52ZM28.01,72.82c0,.32-.26.58-.58.58h-2.2c-.32,0-.58-.26-.58-.58v-7.22c0-.32.26-.58.58-.58h2.2c.32,0,.58.26.58.58v7.22ZM28.09,63.09c0,.33-.27.6-.6.6h-12.25c-.33,0-.6-.27-.6-.6v-1.25c0-.33.27-.6.6-.6h12.25c.33,0,.6.27.6.6v1.25Z"/>
    </g>
  </g>
</svg>